
<svg  xmlns="http://www.w3.org/2000/svg" xmlns:xlink="http://www.w3.org/1999/xlink" 
	 viewBox="235 30 129 197" >
<style type="text/css">
	.st0{fill:#003366;}
	
	.st2{fill:none;stroke:#FFFFFF;stroke-width:0.989;stroke-miterlimit:10;}
	.st3{fill:#CC3333;}
	.st4{stroke:white;stroke-width:0.25}
	
	
	.st9{font-family:'ArialMT';}
	
	
	.st13{fill:#003366;}

	.st20{fill:#1E87B7;}
	.st21{fill:#BD1F47;}
	.st22{fill:#FFFFFF;stroke:#000000;stroke-width:0.7035;stroke-miterlimit:10;}
	.st23{fill:#FFFFFF;stroke:#000000;stroke-width:0.3807;stroke-miterlimit:10;}
	
</style>
<g id="plantilla">
	<rect  x="236.8" y="20.2" class="st0" width="200" height="210"/>
		<line id="LIneV" class="st1" x1="300" y1="20" x2="300" y2="142.4"/>
		<line id="LineH" class="st2" x1="365" y1="124" x2="236" y2="124"/>
	<rect  class="st3" x="310" y="22" width="68.3" height="78.1"/>
</g>
<g id="contacto">
	<g id="foto">
			<image style="overflow:visible;enable-background:new    ;" width="854" height="692" xlink:href="YO2.jpg"  transform="matrix(8.337342e-002 0 0 8.334816e-002 305 26.7304)">
		</image>
	</g>
	<g id="nombre">
			<path id="SVGID_x5F_3_x5F_" class="st11" d="M310,114h74.4"/>
			<text>		<textPath  xlink:href="#SVGID_x5F_3_x5F_" startOffset="13.77%">
	<tspan  style="font-family:'BowlbyOneSC-Regular'; font-size:13px;">Alvarez </tspan>		</textPath>
	</text>
			<path id="SVGID_x5F_4_x5F_" class="st11" d="M312,97.3h74.4"/>
			<text>		<textPath  xlink:href="#SVGID_x5F_4_x5F_" startOffset="1.3672%">
	<tspan  style="font-family:'BowlbyOneSC-Regular'; font-size:13px;">Ernesto
	 </tspan>		</textPath>
	</text>
		</g>
</g>
<g id="developer">
			<g id="logo">
				<path class="st20" d="M 324.8 131.7 c 0.8 -1.1 -0.5 -3.4 -2.4 -2.2 l -4.9 4.9 c 0 0 -1.5 1.3 0.1 2.6 l 5 5 c 0 0 2 -0.8 1.2 -3.5 l -2.8 -2.9 z "/>
				<path class="st21" d="M 326 145.5 c -0.8 0.6 -0.2 3.5 2.2 2.4 l 4.9 -4.9 c 0 0 1.5 -1.2 0.1 -2.5 l -5.1 -5.1 c 0 0 -3 0 -1.2 3.4 l 2.9 2.8 z "/>
				<path class="st22" d="M 326.3 130.4 c 0.1 -1.4 3.4 -2 3 0.9 l -4.9 15.5 c -0.3 1.9 -3.7 1.7 -3.1 -0.9 L 326.3 130.4 z"/>
			</g>
			<g id="DEVELOPERS">
				<path id="D" class="st23" d="M306.3,149.6v3.2h2c0,0,2.6-1.4,0-3.2L306.3,149.6z"/>
				<path id="d" class="st13" d="M307.5,150.5v1.5h0.4c0,0,1.1-0.8,0-1.5h407.5z"/>
				<polygon id="E" class="st23" points="310.3,149.6 310.3,152.8 312.9,152.8 312.9,152 311.3,152 311.3,151.5 312.7,151.5 
					312.7,150.8 311.3,150.8 311.3,150.3 312.9,150.3 312.9,149.6 			"/>
				<polygon id="V" class="st23" points="313.7,149.6 314.8,149.6 315.3,151.4 316,149.6 316.9,149.6 315.8,152.8 314.9,152.8 			"/>
				<polygon id="E_1_" class="st23" points="317.7,149.6 317.7,152.8 320.3,152.8 320.3,152 318.8,152 318.8,151.5 320.2,151.5 
					320.2,150.8 318.7,150.8 318.7,150.3 320.3,150.3 320.3,149.6 			"/>
				<polygon id="L" class="st23" points="321.3,149.7 321.3,152.7 323.6,152.7 323.6,151.8 322.4,151.8 322.4,149.7 			"/>
				<path id="O" class="st23" d="M325.9,149.6c0,0-1.8,0.1-1.8,1.4c0,1.8,1.8,1.7,1.8,1.7s1.6-0.1,1.6-1.7
					C327.6,149.7,325.9,149.6,325.9,149.6z"/>
				<path id="o" class="st13" d="M325.9,150.4c0,0-0.7,0-0.7,0.7c0,0.7,0.6,0.8,0.6,0.8s0.7-0.1,0.7-0.8
					C326.5,150.4,325.9,150.4,325.9,150.4z"/>
				<path id="P" class="st23" d="M328.5,149.6v3.2h1v-0.9h0.9c0,0,1.7-1.1,0-2.3h428.5z"/>
				<path id="p" d="M329.5,150.5v0.5h0.6c0,0,0.3-0.2,0-0.5h429.5z"/>
				<polygon id="E_2_" class="st23" points="332,149.6 332,152.8 334.7,152.8 334.7,152 333.1,152 333.1,151.5 334.5,151.5 
					334.5,150.9 333.1,150.9 333.1,150.3 334.7,150.3 334.7,149.6 			"/>
				<path id="R" class="st23" d="M335.6,149.6v3.2h1v-0.9h0.4l0.5,0.9h0.9v-0.5l-0.5-0.6c0.3-0.2,1.1-1.3-0.2-2.1L335.6,149.6z"/>
				<rect id="r" x="336.7" y="150.5" class="st23" width="0.8" height="0.5"/>
				<path id="S" class="st23" d="M341.1,150.6c0,0,1.1,0.3,0.6-0.8c-1.7-0.8-2.3,0.5-2.3,0.5v0.6c0,0,0.4,0.7,0.9,0.7
					c1.1,0,0.2,0.6-0.1,0.4c-0.5-0.5-1-0.5-1,0.2c-0.1,0.8,2,0.6,2,0.6s1.5-0.5,0.4-1.8l-1.1-0.3
					C340.6,150.7,340.3,150.1,341.1,150.6z"/>
			</g>
			<g id="desing">
				<path id="D_1_" class="st4" d="M309.2,153.9v2.4h1.2c0,0,1.7-1,0-2.4h409.2z"/>
				<path id="d_1_" class="st13" d="M309.9,154.6v1.1h0.3c0,0,0.4-0.6,0-1.1L309.9,154.6z"/>
				<polygon id="E_3_" class="st4" points="314,153.9 314,156.5 315.7,156.5 315.7,155.8 314.7,155.8 314.7,155.4 315.6,155.4 
					315.6,154.9 314.7,154.9 314.7,154.4 315.7,154.4 315.7,153.9 			"/>
				<path id="S_2_" class="st4" d="M319.8,154.7c0,0,0.9,0.2,0.5-0.6c-1.4-0.6-1.8,0.4-1.8,0.4v0.5c0,0,0.3,0.6,0.7,0.5
					c0.8,0,0.1,0.5-0.1,0.3c-0.4-0.4-0.7-0.4-0.8,0.2c0,0.6,1.5,0.5,1.5,0.5s1.2-0.4,0.3-1.4l-0.8-0.2
					C319.3,154.8,319.1,154.3,319.8,154.7z"/>
				<rect id="I" x="323.2" y="154" class="st4" width="1.1" height="2.3"/>
				<path class="st4" d="M328.3,154.9l0-0.3c-0.2-0.1-0.5,0-0.6,0.5c0,1.1,0.6,0.6,0.6,0.6l0-0.3l-0.3,0l0-0.3l0.8,0l0,0.9
					c0,0-1.7,0.9-1.7-0.8c0-0.7,0.3-1,0.6-1.1c0,0,1.1,0,1.1,0l0,0.8L328.3,154.9z"/>
				<path id="S_1_" class="st4" d="M338.2,154.7c0,0,0.9,0.2,0.5-0.6c-1.4-0.6-1.8,0.4-1.8,0.4v0.5c0,0,0.3,0.6,0.7,0.5
					c0.8,0,0.1,0.5-0.1,0.3c-0.4-0.4-0.7-0.4-0.8,0.2c0,0.6,1.5,0.5,1.5,0.5s1.2-0.4,0.3-1.4l-0.8-0.2
					C337.8,154.8,337.6,154.3,338.2,154.7z"/>
				<polygon class="st4" points="332,156.3 332,154 332.8,154 333.4,155.1 333.4,154 334,154 334,156.3 333.4,156.3 332.5,154.9 
					332.5,156.3 			"/>
			</g>
		</g>

	
	
</svg>

